<svg width="216" height="78" viewBox="0 0 216 78" fill="none" xmlns="http://www.w3.org/2000/svg">
<g clip-path="url(#clip0_3_924)">
<path d="M23.6691 9.70387H0V66.3093L23.6691 9.70387Z" fill="#868686"/>
<path d="M40.3227 9.70387H63.961V66.3093L40.3227 9.70387Z" fill="#868686"/>
<path d="M31.9961 30.5665L47.0611 66.3091H37.1771L32.6746 54.9295H21.6495L31.9961 30.5665Z" fill="#868686"/>
<path d="M102.575 45.7012L105.366 53.704C105.458 53.9044 105.597 53.9969 105.844 53.9969H111.21C111.503 53.9969 111.549 53.8581 111.503 53.5652L100.416 22.7722C100.37 22.5255 100.324 22.4792 100.077 22.4792H93.4156C93.2305 22.4792 93.1226 22.618 93.1226 22.8184C93.0301 24.4375 92.8913 24.9309 92.6908 25.4089L82.8069 53.5189C82.7606 53.8582 82.8686 53.9969 83.1461 53.9969H87.9416C88.2346 53.9969 88.3734 53.9044 88.4813 53.6114L91.118 45.7012H102.575ZM92.6446 40.4739C94.094 36.0947 96.0061 30.482 96.7771 27.2747H96.8233C97.7793 30.6362 100.031 37.2975 101.048 40.4739H92.6446Z" fill="#868686"/>
<path d="M125.756 54.4751C128.639 54.4751 131.708 53.9508 134.823 52.6093C135.069 52.5168 135.115 52.4089 135.115 52.1776C135.023 51.3141 134.915 50.0651 134.915 49.1091V20.1202C134.915 19.9351 134.915 19.8426 134.684 19.8426H129.457C129.256 19.8426 129.164 19.9351 129.164 20.1819V30.0042C128.346 29.9116 127.776 29.8654 127.097 29.8654C118.663 29.8654 113.482 35.4319 113.482 42.3861C113.482 50.4506 118.802 54.4751 125.756 54.4751ZM129.164 49.1091C128.3 49.3866 127.344 49.4946 126.373 49.4946C122.548 49.4946 119.418 47.3358 119.418 42.0931C119.418 37.4518 122.641 34.7071 126.912 34.7071C127.776 34.7071 128.531 34.7997 129.164 35.0464V49.1091Z" fill="#868686"/>
<path d="M151.791 29.8651C144.59 29.8651 140.134 35.3853 140.134 42.2008C140.134 48.2915 143.681 54.4748 151.683 54.4748C158.453 54.4748 163.202 49.4943 163.202 42.0466C163.202 35.4778 159.177 29.8651 151.791 29.8651ZM151.498 34.7068C155.569 34.7068 157.296 38.2071 157.296 42.2008C157.296 47.1351 154.752 49.5868 151.791 49.5868C148.137 49.5868 145.978 46.5183 145.978 42.0928C145.978 37.5441 148.276 34.7068 151.498 34.7068Z" fill="#868686"/>
<path d="M168.606 19.8426C168.406 19.8426 168.267 19.9351 168.267 20.1819V52.9948C168.267 53.1336 168.406 53.3803 168.606 53.4266C170.904 54.1359 173.309 54.4751 175.792 54.4751C182.9 54.4751 189.808 50.0651 189.808 41.1834C189.808 34.7534 185.398 29.8654 178.49 29.8654C176.902 29.8654 175.422 30.1121 174.126 30.5438L174.065 20.2281C174.065 19.8889 173.972 19.8426 173.633 19.8426H168.606ZM183.902 41.7693C183.902 47.0891 180.263 49.5871 176.331 49.5871C175.514 49.5871 174.789 49.5408 174.126 49.3404V35.3393C174.882 35.0464 175.792 34.7997 177.472 34.7997C181.266 34.7997 183.902 37.2051 183.902 41.7693Z" fill="#868686"/>
<path d="M209.316 43.496C211.66 43.496 213.587 43.4498 214.25 43.2956C214.497 43.2493 214.59 43.1568 214.636 42.9563C214.775 42.4321 214.836 41.3373 214.836 39.9958C214.836 35.4316 212.092 29.8651 204.999 29.8651C197.751 29.8651 193.727 35.7708 193.727 42.4321C193.727 48.3378 196.842 54.4748 205.569 54.4748C208.838 54.4748 210.951 53.9505 212.77 53.087C212.955 52.9945 213.048 52.8403 213.048 52.5628V48.5691C213.048 48.3378 212.909 48.2915 212.77 48.3841C210.951 49.155 208.977 49.5405 206.818 49.5405C201.93 49.5405 199.71 46.8421 199.571 43.496H209.316ZM199.571 39.3636C199.956 37.0198 201.437 34.4755 204.752 34.4755C208.406 34.4755 209.362 37.5441 209.362 38.9318C209.362 38.9781 209.362 39.1785 209.362 39.3173C209.162 39.3636 208.545 39.3636 206.726 39.3636H199.571Z" fill="#868686"/>
</g>
<defs>
<clipPath id="clip0_3_924">
<rect width="215.101" height="77.6303" fill="white"/>
</clipPath>
</defs>
</svg>
