<svg width="219" height="78" viewBox="0 0 219 78" fill="none" xmlns="http://www.w3.org/2000/svg">
<g clip-path="url(#clip0_3_723)">
<path d="M44.4687 27.3743C36.5751 27.3743 30.4074 33.3666 30.4074 41.3883C30.4074 49.4101 36.4193 55.351 44.4687 55.351C52.5181 55.351 58.6346 49.3076 58.6346 41.3371C58.6346 33.4178 52.6227 27.3743 44.4687 27.3743ZM44.522 49.5699C40.0268 49.5699 36.7329 46.0788 36.7329 41.3903C36.7329 36.6486 39.9736 33.1594 44.4687 33.1594C49.0171 33.1594 52.3091 36.7019 52.3091 41.3903C52.3091 46.0788 49.0171 49.5699 44.522 49.5699ZM60.3585 33.471H64.2794V54.8323H70.5517V27.8951H60.3585V33.471ZM14.6221 33.1574C17.9161 33.1574 20.5295 35.189 21.5216 38.2107H28.1608C26.9576 31.7511 21.6262 27.3743 14.6754 27.3743C6.78176 27.3743 0.614037 33.3665 0.614037 41.3903C0.614037 49.4141 6.62596 55.353 14.6754 55.353C21.4703 55.353 26.9063 50.9763 28.1095 44.4633H21.5216C20.5808 47.4851 17.9673 49.5699 14.6734 49.5699C10.125 49.5699 6.93757 46.0788 6.93757 41.3903C6.93957 36.6486 10.0757 33.1574 14.6221 33.1574ZM179.536 38.7847L174.936 38.1082C172.741 37.7966 171.173 37.0668 171.173 35.3469C171.173 33.471 173.212 32.5341 175.981 32.5341C179.013 32.5341 180.948 33.836 181.366 35.9721H187.43C186.749 30.5538 182.567 27.3763 176.139 27.3763C169.5 27.3763 165.11 30.763 165.11 35.5559C165.11 40.1398 167.985 42.7986 173.786 43.631L178.386 44.3075C180.634 44.6191 181.889 45.5067 181.889 47.1734C181.889 49.3096 179.694 50.1952 176.662 50.1952C172.95 50.1952 170.859 48.6843 170.546 46.3924H164.378C164.954 51.6547 169.082 55.353 176.609 55.353C183.457 55.353 188.003 52.2268 188.003 46.8598C188.003 42.0668 184.711 39.5658 179.536 38.7847ZM67.4155 16.7982C65.1157 16.7982 63.3903 18.4649 63.3903 20.7569C63.3903 23.0488 65.1139 24.7155 67.4155 24.7155C69.7153 24.7155 71.4414 23.0488 71.4414 20.7569C71.4414 18.4649 69.7153 16.7982 67.4155 16.7982ZM159.464 37.118C159.464 31.2836 155.91 27.3763 148.383 27.3763C141.275 27.3763 137.302 30.972 136.517 36.4947H142.738C143.052 34.3586 144.724 32.5874 148.279 32.5874C151.469 32.5874 153.036 33.9937 153.036 35.7137C153.036 37.9544 150.16 38.5264 146.606 38.8913C141.797 39.412 135.839 41.0786 135.839 47.3312C135.839 52.1775 139.446 55.3017 145.196 55.3017C149.691 55.3017 152.513 53.426 153.926 50.4555C154.135 53.1124 156.121 54.8323 158.893 54.8323H162.551V49.2583H159.466V37.118H159.464ZM153.296 43.8913C153.296 47.487 150.16 50.1439 146.344 50.1439C143.991 50.1439 142.005 49.1537 142.005 47.0709C142.005 44.414 145.194 43.6842 148.121 43.3726C150.944 43.1122 152.512 42.487 153.296 41.2878V43.8913ZM120 27.3743C116.497 27.3743 113.57 28.8339 111.48 31.2817V16.5379H105.208V54.8323H111.375V51.2899C113.465 53.8422 116.446 55.353 120 55.353C127.527 55.353 133.225 49.4141 133.225 41.3903C133.225 33.3665 127.423 27.3743 120 27.3743ZM119.06 49.5699C114.564 49.5699 111.271 46.0788 111.271 41.3903C111.271 36.7019 114.616 33.1594 119.111 33.1594C123.659 33.1594 126.846 36.6506 126.846 41.3903C126.846 46.0788 123.554 49.5699 119.06 49.5699ZM90.2049 27.3743C86.1281 27.3743 83.4613 29.041 81.8936 31.3862V27.8951H75.6722V54.8304H81.9445V40.1911C81.9445 36.0746 84.5579 33.1574 88.426 33.1574C92.0334 33.1574 94.2798 35.7098 94.2798 39.41V54.8323H100.552V38.9425C100.555 32.1673 97.0533 27.3743 90.2049 27.3743ZM217.903 40.5047C217.903 32.7945 212.258 27.3763 204.678 27.3763C196.629 27.3763 190.722 33.4198 190.722 41.3903C190.722 49.779 197.047 55.353 204.783 55.353C211.317 55.353 216.44 51.497 217.745 46.0274H211.21C210.27 48.4239 207.97 49.779 204.885 49.779C200.86 49.779 197.828 47.278 197.149 42.9012H217.901V40.5047H217.903ZM197.516 38.4199C198.511 34.6683 201.333 32.8458 204.574 32.8458C208.128 32.8458 210.846 34.8774 211.473 38.4199H197.516Z" fill="#868686"/>
</g>
<defs>
<clipPath id="clip0_3_723">
<rect width="218.335" height="77.6303" fill="white" transform="translate(0.614014 0.364746)"/>
</clipPath>
</defs>
</svg>
