<svg width="292" height="78" viewBox="0 0 292 78" fill="none" xmlns="http://www.w3.org/2000/svg">
<g clip-path="url(#clip0_3_760)">
<path fill-rule="evenodd" clip-rule="evenodd" d="M88.2108 55.9665C87.1451 55.5603 86.4474 54.7001 86.4474 53.5532C86.4474 52.1649 87.5943 51.0204 88.9897 51.0204C89.4007 51.0204 89.7304 51.1016 90.0172 51.2235C91.9201 52.101 93.9932 52.5481 96.0887 52.5329C100.359 52.5329 102.368 50.4899 102.368 46.5617V45.4984C100.521 47.7087 98.5116 49.0587 95.1879 49.0587C90.0578 49.0587 85.4199 45.336 85.4199 38.8319V38.7531C85.4199 32.2085 90.139 28.5288 95.1879 28.5288C98.5928 28.5288 100.602 29.9624 102.284 31.8023V31.7593C102.284 30.0819 103.68 28.6936 105.405 28.6936C107.125 28.6936 108.521 30.0819 108.521 31.7999V45.9094C108.521 49.8352 107.579 52.6954 105.732 54.5352C103.68 56.583 100.521 57.4814 96.2536 57.4814C93.4995 57.5055 90.7673 56.9909 88.2108 55.9665ZM102.368 38.8343V38.7531C102.368 35.7663 100.026 33.6804 96.9919 33.6804C93.9573 33.6804 91.6587 35.7663 91.6587 38.7531V38.8343C91.6587 41.8593 93.9573 43.9047 96.9919 43.9047C100.026 43.9047 102.368 41.8187 102.368 38.8343ZM112.052 31.7999C112.052 30.0819 113.448 28.6936 115.171 28.6936C116.896 28.6936 118.289 30.0819 118.289 31.7999V32.7795C119.192 30.6553 120.669 28.6936 122.518 28.6936C124.446 28.6936 125.553 29.96 125.553 31.7186C125.553 33.353 124.487 34.3351 123.213 34.6218C120.055 35.3601 118.291 37.771 118.291 42.1867V47.993C118.291 49.711 116.896 51.1016 115.171 51.1016C114.762 51.1026 114.357 51.023 113.979 50.8673C113.601 50.7117 113.257 50.4831 112.968 50.1947C112.678 49.9062 112.448 49.5635 112.291 49.1861C112.134 48.8088 112.053 48.4041 112.052 47.9954V31.7999ZM124.814 44.5594V44.4782C124.814 39.6921 128.465 37.4843 133.679 37.4843C135.894 37.4843 137.495 37.8523 139.055 38.3827V38.0148C139.055 35.4414 137.454 34.0077 134.336 34.0077C132.877 33.9921 131.423 34.1992 130.026 34.6218C129.737 34.7287 129.432 34.7844 129.125 34.7867C128.788 34.793 128.453 34.7321 128.139 34.6074C127.826 34.4827 127.54 34.2968 127.3 34.0605C127.059 33.8243 126.868 33.5424 126.737 33.2313C126.607 32.9203 126.539 32.5864 126.54 32.2491C126.54 31.1452 127.232 30.2061 128.222 29.8358C130.191 29.0998 132.324 28.6936 135.237 28.6936C138.642 28.6936 141.105 29.5921 142.663 31.1452C144.305 32.7795 145.046 35.1952 145.046 38.139V48.1149C145.046 49.7922 143.691 51.1016 142.009 51.1016C140.202 51.1016 139.012 49.8352 139.012 48.5258V48.4828C137.495 50.1602 135.404 51.2641 132.365 51.2641C128.222 51.2641 124.814 48.8938 124.814 44.5594ZM139.137 43.1257V42.0242C137.882 41.4731 136.526 41.1938 135.156 41.2046C132.487 41.2046 130.848 42.2679 130.848 44.232V44.3133C130.848 45.9907 132.243 46.9727 134.253 46.9727C137.168 46.9727 139.137 45.3766 139.137 43.1257ZM148.369 31.7999C148.369 30.0819 149.765 28.6936 151.49 28.6936C153.213 28.6936 154.608 30.0819 154.608 31.7999V32.046C156.042 30.2061 157.932 28.5288 161.091 28.5288C163.963 28.5288 166.137 29.7952 167.286 32.0054C169.215 29.7569 171.516 28.5288 174.507 28.5288C179.145 28.5288 181.938 31.31 181.938 36.5859V47.993C181.938 49.711 180.54 51.1016 178.818 51.1016C178.409 51.1026 178.004 51.023 177.626 50.8674C177.248 50.7118 176.904 50.4832 176.614 50.1948C176.324 49.9064 176.094 49.5637 175.937 49.1863C175.78 48.8089 175.698 48.4042 175.697 47.9954V38.6288C175.697 35.6851 174.383 34.1726 172.046 34.1726C169.707 34.1726 168.271 35.6851 168.271 38.6288V47.9954C168.271 49.711 166.878 51.1016 165.153 51.1016C164.327 51.1029 163.535 50.7764 162.951 50.194C162.366 49.6115 162.036 48.8207 162.034 47.9954V38.6288C162.034 35.6851 160.72 34.1726 158.383 34.1726C156.042 34.1726 154.608 35.6851 154.608 38.6288V47.9954C154.608 49.711 153.213 51.1016 151.49 51.1016C151.081 51.1029 150.676 51.0235 150.298 50.868C149.919 50.7125 149.575 50.484 149.286 50.1955C148.996 49.907 148.766 49.5642 148.608 49.1867C148.451 48.8091 148.37 48.4043 148.369 47.9954V31.7999ZM185.303 31.7999C185.303 30.0819 186.698 28.6936 188.421 28.6936C190.146 28.6936 191.541 30.0819 191.541 31.7999V32.046C192.975 30.2061 194.863 28.5288 198.024 28.5288C200.896 28.5288 203.07 29.7952 204.22 32.0054C206.148 29.7569 208.447 28.5288 211.441 28.5288C216.078 28.5288 218.869 31.31 218.869 36.5859V47.993C218.869 49.711 217.474 51.1016 215.749 51.1016C214.923 51.1029 214.131 50.7764 213.547 50.194C212.962 49.6115 212.632 48.8207 212.63 47.9954V38.6288C212.63 35.6851 211.316 34.1726 208.979 34.1726C206.638 34.1726 205.204 35.6851 205.204 38.6288V47.9954C205.204 49.711 203.809 51.1016 202.086 51.1016C201.677 51.1026 201.272 51.023 200.894 50.8673C200.516 50.7117 200.173 50.4831 199.883 50.1947C199.594 49.9062 199.364 49.5635 199.207 49.1861C199.05 48.8088 198.968 48.4041 198.968 47.9954V38.6288C198.968 35.6851 197.654 34.1726 195.314 34.1726C192.975 34.1726 191.539 35.6851 191.539 38.6288V47.9954C191.539 49.711 190.146 51.1016 188.421 51.1016C188.012 51.1026 187.607 51.023 187.229 50.8673C186.851 50.7117 186.508 50.4831 186.218 50.1947C185.928 49.9062 185.699 49.5635 185.541 49.1861C185.384 48.8088 185.303 48.4041 185.303 47.9954V31.7999ZM220.922 44.5594V44.4782C220.922 39.6921 224.575 37.4843 229.787 37.4843C231.617 37.4678 233.435 37.7719 235.16 38.3827V38.0148C235.16 35.4414 233.559 34.0077 230.441 34.0077C228.718 34.0077 227.323 34.2538 226.133 34.6218C225.845 34.7287 225.54 34.7844 225.232 34.7867C224.895 34.7937 224.559 34.7332 224.245 34.6088C223.932 34.4843 223.646 34.2985 223.405 34.0621C223.164 33.8258 222.972 33.5436 222.842 33.2323C222.711 32.921 222.644 32.5867 222.645 32.2491C222.645 31.1452 223.345 30.2061 224.327 29.8358C226.298 29.0998 228.432 28.6936 231.344 28.6936C234.752 28.6936 237.213 29.5921 238.771 31.1452C240.412 32.7795 241.151 35.1952 241.151 38.139V48.1149C241.151 48.5111 241.072 48.9035 240.919 49.269C240.766 49.6345 240.541 49.9659 240.259 50.2439C239.977 50.5219 239.642 50.7409 239.274 50.8881C238.906 51.0354 238.512 51.108 238.116 51.1016C236.31 51.1016 235.12 49.8352 235.12 48.5258V48.4828C233.602 50.1602 231.507 51.2641 228.472 51.2641C224.327 51.2641 220.922 48.8938 220.922 44.5594ZM235.244 43.1257V42.0242C233.99 41.4732 232.633 41.1939 231.263 41.2046C228.594 41.2046 226.955 42.2679 226.955 44.232V44.3133C226.955 45.9907 228.348 46.9727 230.36 46.9727C233.273 46.9727 235.244 45.3766 235.244 43.1257ZM244.477 31.7999C244.477 30.0819 245.872 28.6936 247.595 28.6936C249.32 28.6936 250.713 30.0819 250.713 31.7999V32.7795C251.616 30.6553 253.093 28.6936 254.942 28.6936C256.868 28.6936 257.977 29.96 257.977 31.7186C257.977 33.353 256.909 34.3351 255.638 34.6218C252.479 35.3601 250.713 37.771 250.713 42.1867V47.993C250.713 49.711 249.32 51.1016 247.595 51.1016C246.77 51.1029 245.978 50.7764 245.393 50.194C244.808 49.6115 244.479 48.8207 244.477 47.9954V31.7999ZM259.865 23.867C259.865 22.1466 261.26 20.7607 262.983 20.7607C264.708 20.7607 266.103 22.1466 266.103 23.867V47.993C266.103 49.711 264.708 51.1016 262.983 51.1016C262.157 51.1029 261.365 50.7764 260.781 50.194C260.196 49.6115 259.867 48.8207 259.865 47.9954V23.8646V23.867ZM271.069 56.9486C270.165 56.6236 269.097 55.8853 269.097 54.3751C269.09 54.0462 269.149 53.7192 269.269 53.413C269.39 53.1068 269.57 52.8276 269.799 52.5915C270.028 52.3555 270.302 52.1673 270.604 52.0379C270.907 51.9084 271.232 51.8404 271.561 51.8376C272.053 51.8376 272.34 51.9188 272.586 52.0024C273.119 52.1649 273.448 52.2486 273.9 52.2486C275.006 52.2486 275.542 52.0431 276.115 50.9392L276.321 50.4469L268.813 33.1093C268.625 32.6527 268.514 32.1684 268.483 31.6756C268.483 29.9194 269.838 28.6936 271.561 28.6936C273.119 28.6936 274.022 29.5514 274.555 31.0233L279.317 43.7828L283.912 31.0639C284.404 29.7569 285.305 28.6936 286.908 28.6936C288.507 28.6936 289.859 29.9194 289.859 31.5562C289.859 32.046 289.697 32.7413 289.575 33.028L281.9 51.3884C280.053 55.8446 278.208 57.522 274.474 57.522C273.078 57.522 272.094 57.3189 271.069 56.9486Z" fill="#868686"/>
<path fill-rule="evenodd" clip-rule="evenodd" d="M34.0804 73.8351C52.9019 73.8351 68.1607 58.6288 68.1607 39.8719C68.1607 21.1149 52.9019 5.9086 34.0804 5.9086C15.2589 5.9086 0 21.1149 0 39.8719C0 58.6288 15.2589 73.8351 34.0804 73.8351ZM40.9195 49.0799C39.7845 49.0799 38.7356 48.3177 38.5349 47.2066C38.4723 46.8733 38.4841 46.5303 38.5693 46.202C38.6545 45.8737 38.8111 45.5683 39.0278 45.3075C39.2446 45.0466 39.5163 44.8368 39.8234 44.693C40.1306 44.5492 40.4657 44.475 40.8048 44.4755H53.3421V57.5839C53.341 57.9229 53.2653 58.2575 53.1203 58.5639C52.9754 58.8704 52.7648 59.1412 52.5034 59.3572C52.2421 59.5731 51.9365 59.7289 51.6082 59.8135C51.2799 59.8981 50.937 59.9094 50.6039 59.8467C49.488 59.646 48.7234 58.5994 48.7234 57.4716V55.2829L49.1583 52.86C47.2866 55.0151 44.9721 56.7411 42.3725 57.92C39.773 59.0989 36.9497 59.7031 34.0953 59.6914C22.6476 59.6914 13.4459 50.2531 14.1102 38.6883C14.6837 28.7531 22.748 20.6267 32.7119 19.96C36.2948 19.7078 39.8796 20.4244 43.0902 22.0346C46.3009 23.6447 49.0191 26.0892 50.9599 29.1115C51.2497 29.6087 51.3399 30.1974 51.2121 30.7586C51.0844 31.3197 50.7482 31.8114 50.2717 32.1341C49.2228 32.8581 47.7796 32.4758 47.0532 31.4316C44.3149 27.5966 39.5408 24.4211 34.0953 24.4211C23.6464 24.4211 15.6299 34.8652 19.84 45.8064C21.6966 50.6259 26.0932 54.0786 31.2113 54.8791C37.4979 55.8611 43.2468 53.6342 46.5586 48.7932L44.4893 49.0799H40.9195Z" fill="#868686"/>
</g>
<defs>
<clipPath id="clip0_3_760">
<rect width="291.114" height="77.6303" fill="white" transform="translate(0 0.364746)"/>
</clipPath>
</defs>
</svg>
