<svg width="240" height="78" viewBox="0 0 240 78" fill="none" xmlns="http://www.w3.org/2000/svg">
<path d="M142.177 24.2597C137.276 24.2597 132.485 28.6979 131.934 35.1106V24.7884H124.896V55.9125H132.02V40.8472C132.02 36.627 135.012 30.674 142.177 30.674V24.2597Z" fill="#868686"/>
<path d="M216.909 50.9299V29.6061H221.036C226.539 29.6061 231.011 33.0454 231.011 40.0961C231.011 47.1466 226.539 50.9299 221.036 50.9299H216.909ZM209.858 55.9169H221.897C229.291 55.9169 238.405 51.1019 238.405 40.0961C238.405 29.2622 229.291 24.791 221.897 24.791H209.858V55.9169Z" fill="#868686"/>
<path d="M182.881 40.4403C182.881 34.7654 185.804 30.1224 190.619 30.1224C195.262 30.1224 197.842 34.7654 197.842 40.4403C197.842 46.1152 195.262 50.7583 190.619 50.7583C185.804 50.7583 182.881 46.1152 182.881 40.4403ZM175.658 40.7842C175.658 50.0704 180.473 56.6052 188.04 56.6052C193.542 56.6052 196.81 52.9938 198.529 47.147V55.9173H205.579V24.7914H198.529V33.0458C196.982 27.5429 193.715 24.2755 188.556 24.2755C180.817 24.2755 175.658 31.3261 175.658 40.7842Z" fill="#868686"/>
<path d="M15.1028 56.6052C6.3325 56.6052 1.17352 49.5545 1.17352 40.7842C1.17352 31.6701 6.8484 24.2755 17.6822 24.2755C28.86 24.2755 32.6433 31.842 32.8152 36.1411H24.7329C24.5609 33.7336 22.4973 30.1224 17.5102 30.1224C12.1793 30.1224 8.74003 34.7654 8.74003 40.4403C8.74003 46.1152 12.1793 50.7583 17.5102 50.7583C22.3253 50.7583 24.3889 46.9751 25.2487 43.1918H17.5102V40.0963H33.7482V55.9173H26.6245V45.9432C26.1086 49.5545 23.873 56.6052 15.1028 56.6052Z" fill="#868686"/>
<path d="M48.1919 56.6048C41.4852 56.6048 37.358 52.1336 37.358 43.1914V24.791H44.5805V43.1914C44.5805 47.8344 46.8161 50.07 50.5993 50.07C57.9939 50.07 60.7454 40.9558 60.7454 34.5931V24.791H67.9679V55.9169H60.9173V44.3951C59.5415 50.7579 55.7583 56.6048 48.1919 56.6048Z" fill="#868686"/>
<path d="M111.128 24.2592C104.966 24.2592 101.079 30.2118 99.8096 35.7156C99.5927 28.3398 95.9655 24.2592 90.1619 24.2592C85.1478 24.2592 80.4959 28.7307 79.2877 35.8047V24.7887H72.2469V55.9152H79.378V44.7565C79.378 41.9901 80.5313 30.6374 87.7099 30.6374C92.3602 30.6374 92.845 34.8321 92.845 40.5659V55.9152H99.9727V44.7565C99.9727 41.9901 101.174 30.6374 108.352 30.6374C112.999 30.6374 113.479 34.8321 113.479 40.5659V55.9152H120.616V37.504C120.648 28.6714 117.53 24.2592 111.128 24.2592Z" fill="#868686"/>
<path d="M157.476 24.2592C148.245 24.2592 141.99 31.4977 141.99 40.4321C141.99 50.2766 147.939 56.6049 157.476 56.6049C166.708 56.6049 173.074 49.3666 173.074 40.4321C173.074 30.5878 167.01 24.2592 157.476 24.2592ZM157.476 51.0954C152.102 51.0954 148.621 46.5456 148.621 40.4321C148.621 34.3187 152.114 29.7687 157.476 29.7687C162.838 29.7687 166.191 34.3187 166.191 40.4321C166.191 46.5456 162.835 51.0954 157.476 51.0954Z" fill="#868686"/>
</svg>
