<svg width="273" height="79" viewBox="0 0 273 79" fill="none" xmlns="http://www.w3.org/2000/svg">
<g clip-path="url(#clip0_3_619)">
<path fill-rule="evenodd" clip-rule="evenodd" d="M124.176 49.775C122.286 50.2108 121.309 49.6294 121.309 48.3776C121.309 46.6625 123.082 45.976 125.616 45.976C126.73 45.976 127.781 46.0722 127.781 46.0722C127.781 46.8064 126.186 49.3116 124.176 49.775ZM126.099 32.6034C120.05 32.6034 115.706 34.828 115.706 34.828V41.3675C115.706 41.3675 120.502 38.6108 124.392 38.6108C127.496 38.6108 127.877 40.2855 127.737 41.6748C127.737 41.6748 126.841 41.4378 124.109 41.4378C117.67 41.4378 114.421 44.3643 114.421 49.0561C114.421 53.5069 118.073 55.3667 121.15 55.3667C125.64 55.3667 127.615 52.3489 128.22 50.9176C128.642 49.9246 128.719 49.255 129.096 49.255C129.529 49.255 129.383 49.7353 129.361 50.7235C129.326 52.4548 129.408 53.7632 129.682 54.8662H135.636V44.1565C135.636 37.4698 133.27 32.6034 126.099 32.6034Z" fill="#868686"/>
<path fill-rule="evenodd" clip-rule="evenodd" d="M165.287 43.9959C165.287 42.0398 167.105 40.2584 170.443 40.2584C174.08 40.2584 177.006 42.0099 177.662 42.4078V34.8372C177.662 34.8372 175.351 32.6118 169.67 32.6118C163.682 32.6118 158.695 36.1157 158.695 43.6579C158.695 51.1993 163.221 55.3816 169.654 55.3816C174.68 55.3816 177.675 52.6201 177.675 52.6201V45.4305C176.727 45.9601 174.087 47.7933 170.48 47.7933C166.661 47.7933 165.287 46.0353 165.287 43.9959ZM85.708 33.1075C85.7088 33.1124 86.0881 34.7394 85.5883 36.8669C85.3336 37.9489 84.8654 38.8691 85.4306 38.8691C85.8204 38.8691 85.8212 38.5457 86.3282 37.3861C87.0698 35.6911 88.6329 32.6062 92.2855 32.6062C95.7579 32.6062 97.3937 34.7159 97.9355 36.6914C98.3479 38.1923 97.9873 38.8691 98.4903 38.8691C98.8477 38.8691 98.9714 38.0904 99.4113 37.1055C100.201 35.341 101.92 32.6062 105.395 32.6062C110.639 32.6062 112.642 36.3931 112.642 42.0738V54.8738H104.851V43.0733C104.851 41.1058 104.533 39.1974 102.74 39.1974C101.078 39.1974 100.303 42.1425 100.303 44.0436V54.8787H92.3696V43.0741C92.3696 40.5568 92.0146 39.1982 90.2453 39.1982C88.7137 39.1982 87.8202 41.908 87.8202 44.0444V54.8746H79.9181V33.1075H85.708ZM138.229 33.1374C138.233 33.1391 139.578 33.9146 142.188 33.9146C144.803 33.9146 146.131 33.1374 146.131 33.1374V54.8795H138.229V33.1374ZM203.462 33.1374C203.465 33.1391 204.81 33.9146 207.421 33.9146C210.036 33.9146 211.364 33.1374 211.364 33.1374V54.8795H203.462V33.1374ZM156.59 26.5179V54.8795H148.688V26.5179H156.59ZM187.053 26.5179C187.054 26.5203 187.381 27.3354 187.381 29.7597C187.381 33.3396 186.602 36.2532 186.234 37.3634C186.039 37.9513 185.691 38.8586 186.19 38.8748C186.478 38.8837 186.651 38.4502 187.004 37.6982C187.355 36.9454 189.095 32.611 193.669 32.611C199.969 32.611 200.895 37.7702 200.895 43.3571V54.8787H192.993V42.884C192.993 40.4241 192.477 39.2023 190.829 39.2023C188.838 39.2023 188.134 42.2848 188.134 44.0493V54.8787H180.232V26.5171L187.053 26.5179ZM219.823 33.1075C219.824 33.1124 220.203 34.7394 219.704 36.8669C219.449 37.9489 218.981 38.8691 219.546 38.8691C219.936 38.8691 219.937 38.5457 220.444 37.3861C221.184 35.6911 222.748 32.6062 226.401 32.6062C230.032 32.6062 231.472 34.7256 232.051 36.6914C232.439 38.0087 232.103 38.8691 232.606 38.8691C232.963 38.8691 233.087 38.0904 233.527 37.1055C234.315 35.341 236.035 32.6062 239.511 32.6062C244.755 32.6062 246.757 36.3931 246.757 42.0738V54.8738H238.966V43.0733C238.966 41.1058 238.649 39.1974 236.855 39.1974C235.193 39.1974 234.418 42.1425 234.418 44.0436V54.8787H226.484V43.0741C226.484 40.5568 226.131 39.1982 224.361 39.1982C222.829 39.1982 221.936 41.908 221.936 44.0444V54.8746H214.033V33.1075H219.823ZM142.156 26.2979C139.486 26.2979 137.32 27.7114 137.32 29.4549C137.32 31.1983 139.485 32.6118 142.156 32.6118C144.828 32.6118 146.994 31.1983 146.994 29.4549C146.994 27.7114 144.829 26.2979 142.156 26.2979ZM207.39 26.2979C204.719 26.2979 202.552 27.7114 202.552 29.4549C202.552 31.1983 204.718 32.6118 207.39 32.6118C210.061 32.6118 212.227 31.1983 212.227 29.4549C212.227 27.7114 210.061 26.2979 207.39 26.2979Z" fill="#868686"/>
<path fill-rule="evenodd" clip-rule="evenodd" d="M260.217 50.189C258.406 50.189 257.073 47.8917 257.073 44.6902C257.073 41.581 258.441 39.1931 260.155 39.1931C262.352 39.1931 263.29 41.209 263.29 44.6902C263.29 48.3121 262.426 50.189 260.217 50.189ZM262.385 32.5986C258.325 32.5986 256.463 35.6431 255.654 37.3777C255.12 38.5235 255.148 38.8607 254.756 38.8607C254.193 38.8607 254.661 37.9405 254.915 36.8585C255.416 34.7277 255.035 33.0999 255.035 33.0999H249.249V60.8712H257.148V52.0667C258.082 53.6524 259.813 55.3465 262.482 55.3465C268.195 55.3465 271.07 50.5133 271.07 43.9835C271.07 36.5827 267.629 32.5986 262.387 32.5986" fill="#868686"/>
<path fill-rule="evenodd" clip-rule="evenodd" d="M51.9846 39.1698C52.5159 39.1067 53.0245 39.1035 53.4927 39.1698C53.7636 38.5487 53.8097 37.4789 53.5663 36.3136C53.2049 34.5815 52.7148 33.5335 51.7024 33.6969C50.69 33.8602 50.6528 35.1152 51.015 36.8465C51.2188 37.8209 51.5811 38.6539 51.9846 39.1698Z" fill="#868686"/>
<path fill-rule="evenodd" clip-rule="evenodd" d="M43.2989 40.5405C44.0226 40.8583 44.4682 41.0693 44.642 40.885C44.7544 40.7701 44.7205 40.551 44.5474 40.2688C44.19 39.6858 43.4549 39.0938 42.6746 38.7615C41.0799 38.0749 39.1772 38.303 37.7095 39.3574C37.2251 39.7124 36.7658 40.2041 36.8313 40.5025C36.8523 40.5987 36.9251 40.6715 37.0949 40.6958C37.4944 40.741 38.8901 40.0359 40.4985 39.9372C41.6331 39.8677 42.5743 40.2227 43.2989 40.5405Z" fill="#868686"/>
<path fill-rule="evenodd" clip-rule="evenodd" d="M41.8453 41.3719C40.9016 41.5206 40.3816 41.832 40.0476 42.1207C39.763 42.3697 39.5867 42.6455 39.5883 42.8387C39.5891 42.9309 39.6288 42.9843 39.6603 43.011C39.7032 43.049 39.7541 43.07 39.8156 43.07C40.0282 43.07 40.5061 42.8784 40.5061 42.8784C41.8186 42.4085 42.6846 42.466 43.5426 42.563C44.0165 42.6164 44.2413 42.6455 44.3448 42.4829C44.3755 42.436 44.4127 42.3349 44.3181 42.1813C44.0973 41.8231 43.1439 41.2174 41.8453 41.3719Z" fill="#868686"/>
<path fill-rule="evenodd" clip-rule="evenodd" d="M49.0536 44.4223C49.6941 44.7368 50.3992 44.6131 50.6289 44.1465C50.8585 43.68 50.5254 43.046 49.8849 42.7314C49.2445 42.4169 48.5393 42.5406 48.3097 43.0072C48.08 43.4745 48.4132 44.1077 49.0536 44.4223Z" fill="#868686"/>
<path fill-rule="evenodd" clip-rule="evenodd" d="M53.1718 40.8249C52.6519 40.816 52.2201 41.3869 52.2079 42.1009C52.1958 42.8149 52.6082 43.3996 53.1282 43.4085C53.6481 43.4174 54.0799 42.8465 54.0921 42.1324C54.1042 41.4192 53.6918 40.8337 53.1718 40.8249Z" fill="#868686"/>
<path fill-rule="evenodd" clip-rule="evenodd" d="M18.2223 53.6899C18.0929 53.5274 17.8802 53.5767 17.674 53.6253C17.5301 53.6592 17.3676 53.6964 17.1888 53.694C16.8064 53.6867 16.4821 53.5234 16.3001 53.2436C16.0632 52.8797 16.077 52.3371 16.3381 51.716L16.4603 51.4379C16.8775 50.5015 17.5754 48.9351 16.7918 47.4424C16.2015 46.3183 15.2392 45.6189 14.082 45.4717C12.971 45.331 11.8275 45.7426 11.0981 46.5472C9.94743 47.8168 9.7671 49.5448 9.98947 50.1554C10.0711 50.3785 10.1989 50.4408 10.2911 50.4538C10.4868 50.4796 10.7763 50.3373 10.9574 49.8497L11.0092 49.6912C11.09 49.4332 11.2404 48.9529 11.4871 48.568C11.7847 48.1038 12.2472 47.7844 12.7906 47.6672C13.3437 47.5483 13.9098 47.6542 14.3837 47.9647C15.1899 48.492 15.5004 49.4801 15.1559 50.4222C14.978 50.9098 14.6885 51.8422 14.7524 52.608C14.8818 54.1582 15.8352 54.7808 16.6915 54.8471C17.5244 54.8787 18.1067 54.4104 18.2538 54.0692C18.3404 53.867 18.2676 53.7441 18.2199 53.6916" fill="#868686"/>
<path fill-rule="evenodd" clip-rule="evenodd" d="M26.1443 25.2178C28.8613 22.0786 32.2051 19.3495 35.2011 17.8171C35.3046 17.7637 35.4146 17.8761 35.3588 17.978C35.121 18.409 34.6625 19.3317 34.5178 20.0311C34.4952 20.1403 34.614 20.222 34.7062 20.1597C36.5701 18.8894 39.812 17.5276 42.656 17.3529C42.7781 17.3456 42.8371 17.5017 42.7401 17.5769C42.3075 17.9085 41.8344 18.3678 41.4891 18.8319C41.4301 18.9112 41.4859 19.0244 41.5845 19.0252C43.5811 19.0398 46.396 19.7384 48.2308 20.7678C48.3545 20.8374 48.2664 21.0775 48.1273 21.046C45.3512 20.4096 40.8074 19.9268 36.0866 21.0784C31.8727 22.1061 28.6559 23.6935 26.31 25.3997C26.1912 25.4863 26.0481 25.3286 26.1443 25.2178ZM39.6745 55.6326L39.6753 55.6342L39.677 55.6374L39.6745 55.6326ZM50.8775 56.9547C50.9584 56.9207 51.0133 56.8293 51.0044 56.738C50.9931 56.6256 50.8928 56.5439 50.7804 56.5552C50.7804 56.5552 44.9833 57.4132 39.5063 55.4086C40.1031 53.4694 41.6889 54.1697 44.0865 54.363C48.4079 54.6209 52.2813 53.9894 55.1439 53.1678C57.624 52.4562 60.882 51.0524 63.4123 49.055C64.2654 50.9295 64.567 52.9931 64.567 52.9931C64.567 52.9931 65.2277 52.8751 65.78 53.2147C66.3016 53.5357 66.6841 54.2029 66.4229 55.9285C65.8908 59.1518 64.5209 61.7685 62.2179 64.1759C60.8157 65.6848 59.1143 66.9964 57.1671 67.9506C56.1329 68.494 55.0323 68.9639 53.8687 69.3431C45.187 72.179 36.3 69.0617 33.4358 62.3678C33.207 61.8648 33.0137 61.3375 32.8617 60.7869C31.6414 56.3757 32.6773 51.0831 35.9167 47.7515C36.1165 47.5396 36.3203 47.2882 36.3203 46.9736C36.3203 46.7108 36.1529 46.4334 36.0081 46.2361C34.8744 44.5921 30.9484 41.791 31.7369 36.3698C32.3029 32.4754 35.7089 29.7325 38.8845 29.895L39.6891 29.9411C41.0654 30.0228 42.2654 30.1991 43.3983 30.2468C45.2946 30.3293 46.9992 30.0535 49.0192 28.3707C49.7001 27.803 50.2467 27.3106 51.171 27.1545C51.2681 27.1375 51.5098 27.051 51.9926 27.0737C52.4859 27.1003 52.9549 27.2354 53.3762 27.516C54.9951 28.5931 55.2248 31.2026 55.3089 33.111C55.3566 34.2002 55.4884 36.8364 55.5337 37.5933C55.6364 39.3238 56.0916 39.5672 57.0119 39.8705C57.5294 40.0411 58.0097 40.168 58.7181 40.367C60.861 40.9686 62.1314 41.5791 62.9328 42.3635C63.4107 42.8535 63.633 43.3743 63.7018 43.8708C63.9541 45.7145 62.2705 47.9917 57.8124 50.061C52.9395 52.3228 47.0275 52.8953 42.9431 52.44L41.5118 52.2783C38.2448 51.8384 36.3809 56.0603 38.3419 58.9537C39.6058 60.8184 43.0482 62.0314 46.4922 62.0322C54.3886 62.033 60.4583 58.6609 62.716 55.749L62.8964 55.4919C63.008 55.3245 62.9158 55.2323 62.7775 55.3269C60.933 56.5892 52.7398 61.6003 43.9757 60.0922C43.9757 60.0922 42.9107 59.9168 41.9387 59.5391C41.1665 59.2383 39.5492 58.4944 39.3527 56.8358C46.4251 59.0232 50.8775 56.9547 50.8775 56.9547ZM12.031 40.147C9.57111 40.6249 7.40313 42.019 6.07776 43.9452C5.28529 43.2846 3.80951 42.0053 3.54832 41.5063C1.43209 37.4874 5.85781 29.6742 8.95006 25.2615C16.5918 14.3569 28.5597 6.10306 34.0997 7.60067C35.0006 7.85539 37.9836 11.314 37.9836 11.314C37.9836 11.314 32.4452 14.3868 27.3095 18.6702C20.3892 23.9984 15.1629 31.7428 12.031 40.147ZM16.164 58.5882C15.792 58.652 15.4119 58.6771 15.0287 58.6674C11.3275 58.5679 7.33035 55.2363 6.93331 51.2853C6.49421 46.9178 8.72607 43.5571 12.6771 42.7597C13.1494 42.6643 13.7203 42.6093 14.3356 42.6417C16.5497 42.763 19.8118 44.4627 20.5565 49.2855C21.2164 53.5568 20.1684 57.9057 16.164 58.5882ZM66.2967 50.8543C66.2652 50.7419 66.0582 49.9874 65.7743 49.0777C65.4905 48.1672 65.197 47.5275 65.197 47.5275C66.3355 45.8237 66.3558 44.2994 66.2037 43.4366C66.042 42.3667 65.5964 41.4554 64.6988 40.5125C63.8012 39.5704 61.9648 38.6049 59.3844 37.8804L58.0308 37.5043C58.0243 37.4486 57.9596 34.3126 57.9014 32.9662C57.8585 31.9926 57.7752 30.4732 57.3038 28.9772C56.7418 26.9515 55.7633 25.179 54.5414 24.0453C57.9135 20.5503 60.0184 16.6995 60.0127 13.397C60.003 7.04513 52.202 5.12299 42.5881 9.10394L40.5511 9.96839C40.5422 9.95949 36.8685 6.35536 36.8135 6.30684C25.8524 -3.25377 -8.41801 34.8391 2.53832 44.0908L4.93272 46.1197C4.31168 47.7289 4.06747 49.5726 4.2672 51.5546C4.52273 54.101 5.83598 56.5415 7.96514 58.4272C9.98594 60.2176 12.6431 61.3513 15.2211 61.3489C19.4851 71.1747 29.2276 77.2023 40.6506 77.542C52.9039 77.9059 63.1899 72.1564 67.5 61.8284C67.7822 61.1038 68.9782 57.8377 68.9782 54.9541C68.9782 52.0567 67.3399 50.8543 66.2967 50.8543Z" fill="#868686"/>
</g>
<defs>
<clipPath id="clip0_3_619">
<rect width="271.706" height="77.6303" fill="white" transform="translate(0.405151 0.547363)"/>
</clipPath>
</defs>
</svg>
