<svg width="197" height="78" viewBox="0 0 197 78" fill="none" xmlns="http://www.w3.org/2000/svg">
<g clip-path="url(#clip0_3_549)">
<path d="M62.2456 52.6257L64.62 47.076C67.2197 49.0013 70.6107 50.0202 74.0024 50.0202C76.4895 50.0202 78.0719 49.058 78.0719 47.5859C78.0151 43.5083 63.0936 46.6796 62.9801 36.4281C62.9233 31.2181 67.5586 27.1973 74.1159 27.1973C78.0151 27.1973 81.916 28.1603 84.6851 30.3694L82.4664 36.0374C79.9185 34.3991 76.7716 33.2569 73.7763 33.2569C71.7415 33.2569 70.3845 34.2191 70.3845 35.4659C70.4413 39.4867 85.4771 37.2777 85.6466 47.076C85.6466 52.3995 81.124 56.1374 74.6801 56.1374C69.933 56.1374 65.5806 55.0049 62.2448 52.6257H62.2456ZM156.79 45.0664C156.19 46.1313 155.319 47.0176 154.264 47.6344C153.209 48.2513 152.009 48.5764 150.787 48.5765C146.978 48.5765 143.892 45.4831 143.892 41.6673C143.892 37.8516 146.978 34.7582 150.787 34.7582C152.009 34.7583 153.209 35.0834 154.264 35.7003C155.319 36.3171 156.19 37.2034 156.79 38.2683L163.391 34.6042C160.918 30.1853 156.202 27.1973 150.787 27.1973C142.811 27.1973 136.345 33.6752 136.345 41.6673C136.345 49.6587 142.811 56.1374 150.787 56.1374C156.202 56.1374 160.918 53.1493 163.391 48.7305L156.79 45.0664ZM89.93 55.5707H98.1824V15.1519H89.9308L89.93 55.5707ZM167.558 15.1519V55.5707H175.811V43.4613L185.59 55.5707H196.138L183.702 41.185L195.233 27.7615H185.137L175.811 38.9217V15.1519H167.558ZM123.607 27.7631V31.0487C122.25 28.7829 118.915 27.1973 115.411 27.1973C108.176 27.1973 102.467 33.5974 102.467 41.639C102.467 49.6806 108.176 56.1374 115.411 56.1374C118.915 56.1374 122.25 54.5518 123.607 52.286V55.5707H131.859V27.7631H123.607ZM123.607 45.1223C122.42 47.1043 119.933 48.5757 117.164 48.5757C113.354 48.5757 110.268 45.4831 110.268 41.6673C110.268 37.8516 113.354 34.7582 117.164 34.7582C119.933 34.7582 122.42 36.2871 123.607 38.325V45.1223Z" fill="#868686"/>
<path d="M18.6648 14.2584C15.9905 14.2584 13.8228 16.4309 13.8228 19.1101C13.8222 19.7466 13.9469 20.377 14.1899 20.9653C14.4329 21.5536 14.7894 22.0882 15.239 22.5388C15.6886 22.9893 16.2226 23.3468 16.8104 23.591C17.3982 23.8352 18.0283 23.9612 18.6648 23.9618H23.5076V19.1101C23.5087 17.8246 22.9991 16.5912 22.0909 15.6814C21.1827 14.7715 19.9504 14.2597 18.6648 14.2584ZM18.6648 27.1963H5.75203C3.0777 27.1963 0.910034 29.3688 0.910034 32.0488C0.910034 34.728 3.0777 36.9005 5.75203 36.9005H18.6656C21.3391 36.9005 23.5076 34.728 23.5076 32.0488C23.5076 29.3688 21.3391 27.1963 18.6648 27.1963Z" fill="#868686"/>
<path d="M49.3334 32.0488C49.3334 29.3688 47.1649 27.1963 44.4906 27.1963C41.8162 27.1963 39.6486 29.3688 39.6486 32.0488V36.9005H44.4906C45.7761 36.8993 47.0085 36.3874 47.9167 35.4775C48.8248 34.5677 49.3344 33.3344 49.3334 32.0488ZM36.4206 32.0488V19.1101C36.4216 17.8246 35.9121 16.5912 35.0039 15.6814C34.0957 14.7715 32.8633 14.2597 31.5778 14.2584C28.9034 14.2584 26.7358 16.4309 26.7358 19.1101V32.048C26.7358 34.7288 28.9034 36.9014 31.5778 36.9014C32.8633 36.9001 34.0957 36.3882 35.0039 35.4784C35.9121 34.5685 36.4216 33.3352 36.4206 32.0496" fill="#868686"/>
<path d="M31.5778 62.7774C32.8633 62.7761 34.0957 62.2642 35.0039 61.3544C35.9121 60.4445 36.4217 59.2112 36.4206 57.9257C36.4217 56.6401 35.9121 55.4068 35.0039 54.497C34.0957 53.5871 32.8633 53.0752 31.5778 53.074H26.7358V57.9257C26.7358 60.6049 28.9035 62.7774 31.5778 62.7774ZM31.5778 49.8395H44.4914C47.1649 49.8395 49.3334 47.6669 49.3334 44.9869C49.3344 43.7014 48.8249 42.4681 47.9167 41.5582C47.0085 40.6484 45.7761 40.1365 44.4906 40.1352H31.5778C28.9035 40.1352 26.7358 42.3078 26.7358 44.9869C26.7351 45.6234 26.8599 46.2538 27.1029 46.8421C27.3459 47.4304 27.7023 47.9651 28.152 48.4156C28.6016 48.8661 29.1355 49.2237 29.7233 49.4679C30.3111 49.712 30.9413 49.838 31.5778 49.8387" fill="#868686"/>
<path d="M0.909487 44.9869C0.908848 45.6234 1.03358 46.2538 1.27657 46.8421C1.51956 47.4304 1.87604 47.9651 2.32566 48.4156C2.77528 48.8661 3.30923 49.2237 3.89704 49.4679C4.48484 49.712 5.11498 49.838 5.75148 49.8387C7.03702 49.8374 8.26941 49.3255 9.17759 48.4157C10.0858 47.5058 10.5954 46.2725 10.5943 44.9869V40.1352H5.75148C3.07716 40.1352 0.909487 42.3078 0.909487 44.9869ZM13.8223 44.9869V57.9249C13.8223 60.6049 15.9899 62.7774 18.6643 62.7774C19.9498 62.7761 21.1822 62.2642 22.0904 61.3544C22.9986 60.4445 23.5081 59.2112 23.5071 57.9257V44.9869C23.5077 44.3504 23.383 43.7199 23.1399 43.1316C22.8969 42.5432 22.5403 42.0085 22.0906 41.558C21.6409 41.1075 21.1069 40.7499 20.519 40.5058C19.9311 40.2617 19.3008 40.1358 18.6643 40.1352C15.9899 40.1352 13.8223 42.3078 13.8223 44.9869Z" fill="#868686"/>
</g>
<defs>
<clipPath id="clip0_3_549">
<rect width="195.693" height="77.6303" fill="white" transform="translate(0.909668 0.182617)"/>
</clipPath>
</defs>
</svg>
