<svg width="228" height="78" viewBox="0 0 228 78" fill="none" xmlns="http://www.w3.org/2000/svg">
<g clip-path="url(#clip0_3_791)">
<path d="M34.6774 5.16232C15.9201 5.16232 0.713562 20.3685 0.713562 39.1258C0.713562 57.8839 15.9201 73.0888 34.6774 73.0888C53.4368 73.0888 68.6417 57.8839 68.6417 39.1258C68.6417 20.3697 53.4368 5.16395 34.677 5.16395L34.6774 5.16232ZM50.2531 54.1474C49.6447 55.1451 48.3388 55.4614 47.3411 54.849C39.3667 49.9781 29.3279 48.8749 17.5055 51.5761C16.3662 51.8356 15.2306 51.1218 14.9711 49.9822C14.7103 48.8425 15.4213 47.7069 16.5633 47.4473C29.5011 44.4915 40.5988 45.7642 49.5514 51.2354C50.5491 51.8478 50.8655 53.1497 50.2531 54.1474ZM54.4102 44.8995C53.6436 46.1454 52.0132 46.5388 50.7681 45.7723C41.6387 40.1608 27.7223 38.5357 16.9239 41.8135C15.5235 42.2365 14.0443 41.4473 13.6193 40.0493C13.1975 38.6488 13.9872 37.1725 15.3852 36.7467C27.7198 33.0041 43.0541 34.817 53.5382 41.2595C54.7833 42.026 55.1767 43.6564 54.4102 44.8999V44.8995ZM54.7671 35.2696C43.8207 28.7679 25.7605 28.1701 15.3093 31.342C13.6311 31.851 11.8563 30.9036 11.3477 29.2254C10.8391 27.5463 11.7857 25.7727 13.4652 25.2625C25.4624 21.6205 45.4065 22.3241 58.0092 29.8057C59.522 30.7016 60.0168 32.6512 59.1205 34.1587C58.2282 35.6683 56.2734 36.1659 54.7687 35.2696H54.7671ZM93.118 36.5155C87.2535 35.1171 86.2111 34.1356 86.2111 32.0733C86.2111 30.1249 88.0443 28.8137 90.7738 28.8137C93.4182 28.8137 96.0382 29.8094 98.788 31.8591C98.8691 31.9212 98.9745 31.9459 99.0759 31.9297C99.1814 31.9143 99.2706 31.8579 99.3314 31.7732L102.195 27.7369C102.312 27.5706 102.28 27.3415 102.122 27.2145C98.8488 24.5893 95.1662 23.3129 90.859 23.3129C84.528 23.3129 80.1032 27.1127 80.1032 32.5494C80.1032 38.3795 83.9197 40.4439 90.5143 42.0374C96.1233 43.33 97.0724 44.4128 97.0724 46.3482C97.0724 48.4937 95.1581 49.828 92.0757 49.828C88.6527 49.828 85.8583 48.6722 82.7354 45.971C82.6583 45.9021 82.5529 45.8737 82.4555 45.8778C82.3501 45.8859 82.2568 45.9345 82.1919 46.0116L78.9798 49.8321C78.8459 49.9943 78.8622 50.2296 79.0163 50.3674C82.6502 53.612 87.1196 55.3235 91.9459 55.3235C98.7677 55.3235 103.176 51.5963 103.176 45.825C103.188 40.9553 100.272 38.2583 93.1302 36.5208L93.118 36.5155ZM118.612 30.7321C115.656 30.7321 113.23 31.8969 111.227 34.2837V31.5971C111.227 31.385 111.057 31.2123 110.846 31.2123H105.593C105.383 31.2123 105.212 31.385 105.212 31.5971V61.4477C105.212 61.6586 105.383 61.833 105.593 61.833H110.846C111.057 61.833 111.227 61.6586 111.227 61.4477V52.0262C113.23 54.2691 115.656 55.3682 118.612 55.3682C124.108 55.3682 129.672 51.138 129.672 43.0513C129.68 34.963 124.116 30.7316 118.616 30.7316L118.612 30.7321ZM123.564 43.0513C123.564 47.1675 121.03 50.043 117.396 50.043C113.806 50.043 111.097 47.0377 111.097 43.0513C111.097 39.0645 113.806 36.0601 117.396 36.0601C120.969 36.0597 123.564 38.9992 123.564 43.0509V43.0513ZM143.928 30.7321C136.851 30.7321 131.307 36.1813 131.307 43.1393C131.307 50.0227 136.814 55.4128 143.843 55.4128C150.945 55.4128 156.505 49.9822 156.505 43.0513C156.505 36.144 150.981 30.7329 143.928 30.7329V30.7321ZM143.928 50.0835C140.165 50.0835 137.325 47.058 137.325 43.0493C137.325 39.0224 140.067 36.1002 143.843 36.1002C147.631 36.1002 150.486 39.1246 150.486 43.1373C150.486 47.1634 147.728 50.0835 143.928 50.0835ZM171.617 31.2123H165.837V25.3047C165.837 25.093 165.667 24.9202 165.456 24.9202H160.204C159.993 24.9202 159.819 25.093 159.819 25.3047V31.2123H157.296C157.085 31.2123 156.915 31.385 156.915 31.5971V36.1099C156.915 36.3217 157.085 36.4948 157.296 36.4948H159.819V48.1733C159.819 52.8901 162.167 55.283 166.803 55.283C168.684 55.283 170.246 54.8936 171.718 54.0582C171.84 53.9933 171.913 53.8635 171.913 53.7256V49.4265C171.913 49.2967 171.844 49.171 171.73 49.1021C171.617 49.0291 171.475 49.025 171.357 49.0858C170.347 49.5928 169.37 49.828 168.275 49.828C166.592 49.828 165.837 49.0615 165.837 47.35V36.4969H171.617C171.828 36.4969 171.998 36.3241 171.998 36.112V31.5996C172.006 31.3875 171.836 31.2147 171.621 31.2147L171.617 31.2123ZM191.749 31.2354V30.5098C191.749 28.3753 192.569 27.4234 194.402 27.4234C195.497 27.4234 196.377 27.6408 197.362 27.9693C197.484 28.0074 197.61 27.9884 197.707 27.9158C197.809 27.8432 197.865 27.7268 197.865 27.6035V23.1787C197.865 23.0095 197.76 22.8599 197.594 22.81C196.555 22.5006 195.225 22.183 193.23 22.183C188.383 22.183 185.816 24.9141 185.816 30.0783V31.1895H183.293C183.082 31.1895 182.908 31.3623 182.908 31.574V36.1099C182.908 36.3217 183.082 36.4948 183.293 36.4948H185.816V54.5043C185.816 54.7192 185.99 54.8896 186.201 54.8896H191.449C191.664 54.8896 191.834 54.7192 191.834 54.5043V36.4961H196.738L204.249 54.5043C203.397 56.3943 202.558 56.7714 201.414 56.7714C200.489 56.7714 199.512 56.4957 198.518 55.9481C198.425 55.8995 198.311 55.8913 198.214 55.9197C198.113 55.9562 198.028 56.0292 197.987 56.1266L196.207 60.0322C196.121 60.2188 196.194 60.4338 196.373 60.5311C198.23 61.5369 199.905 61.9668 201.978 61.9668C205.855 61.9668 208.001 60.158 209.887 55.2992L218.996 31.761C219.044 31.6426 219.028 31.5087 218.955 31.4037C218.886 31.2994 218.769 31.2366 218.643 31.2366H213.176C213.009 31.2366 212.863 31.3408 212.811 31.4945L207.21 47.4879L201.077 31.484C201.021 31.3351 200.879 31.2366 200.721 31.2366H191.749V31.2354ZM180.077 31.2123H174.825C174.614 31.2123 174.439 31.385 174.439 31.5971V54.5043C174.439 54.7192 174.614 54.8896 174.825 54.8896H180.077C180.288 54.8896 180.462 54.7192 180.462 54.5043V31.5988C180.462 31.3866 180.292 31.2139 180.077 31.2139V31.2123ZM177.481 20.7813C175.401 20.7813 173.713 22.4653 173.713 24.5455C173.713 26.6268 175.401 28.3128 177.481 28.3128C179.562 28.3128 181.245 26.6268 181.245 24.5455C181.245 22.4657 179.558 20.7813 177.481 20.7813ZM223.481 38.5779C221.405 38.5779 219.787 36.9089 219.787 34.8823C219.787 32.8556 221.425 31.1676 223.502 31.1676C225.578 31.1676 227.196 32.8362 227.196 34.8612C227.196 36.8878 225.558 38.5779 223.481 38.5779ZM223.502 31.5351C221.608 31.5351 220.176 33.0398 220.176 34.8823C220.176 36.724 221.599 38.2084 223.481 38.2084C225.375 38.2084 226.807 36.7049 226.807 34.8612C226.807 33.0195 225.383 31.5351 223.502 31.5351ZM224.321 35.2412L225.367 36.7045H224.483L223.542 35.3621H222.735V36.7045H221.997V32.8256H223.725C224.629 32.8256 225.221 33.2868 225.221 34.063C225.225 34.699 224.856 35.0875 224.325 35.2412H224.321ZM223.696 33.4912H222.735V34.718H223.696C224.175 34.718 224.463 34.4832 224.463 34.104C224.463 33.7049 224.175 33.4912 223.696 33.4912Z" fill="#868686"/>
</g>
<defs>
<clipPath id="clip0_3_791">
<rect width="226.422" height="77.6303" fill="white" transform="translate(0.59668 0.182617)"/>
</clipPath>
</defs>
</svg>
