<svg width="130" height="78" viewBox="0 0 130 78" fill="none" xmlns="http://www.w3.org/2000/svg">
<g clip-path="url(#clip0_3_889)">
<path fill-rule="evenodd" clip-rule="evenodd" d="M128.354 41.7538C128.354 32.633 123.936 25.4361 115.492 25.4361C107.013 25.4361 101.882 32.633 101.882 41.6825C101.882 52.4065 107.939 57.822 116.632 57.822C120.872 57.822 124.079 56.86 126.501 55.5062V48.3806C124.079 49.5919 121.3 50.3401 117.772 50.3401C114.316 50.3401 111.252 49.1288 110.861 44.9246H128.283C128.283 44.4615 128.354 42.6088 128.354 41.7538ZM110.754 38.3691C110.754 34.3431 113.212 32.6686 115.457 32.6686C117.63 32.6686 119.946 34.3431 119.946 38.3691H110.754Z" fill="#868686"/>
<path fill-rule="evenodd" clip-rule="evenodd" d="M88.1296 25.4361C84.6381 25.4361 82.3935 27.075 81.1465 28.2151L80.6834 26.0061H72.8452V67.5484L81.7522 65.6601L81.7878 55.5774C83.0704 56.5037 84.9587 57.822 88.094 57.822C94.4714 57.822 100.279 52.6915 100.279 41.3974C100.243 31.0653 94.3645 25.4361 88.1296 25.4361ZM85.992 49.9838C83.8899 49.9838 82.6429 49.2356 81.7878 48.3093L81.7522 35.0913C82.6786 34.0581 83.9612 33.3455 85.992 33.3455C89.2341 33.3455 91.4787 36.9796 91.4787 41.6468C91.4787 46.421 89.2697 49.9838 85.992 49.9838Z" fill="#868686"/>
<path fill-rule="evenodd" clip-rule="evenodd" d="M60.589 23.334L69.5316 21.4101V14.1776L60.589 16.0659V23.334Z" fill="#868686"/>
<path d="M69.5316 26.0417H60.589V57.2162H69.5316V26.0417Z" fill="#868686"/>
<path fill-rule="evenodd" clip-rule="evenodd" d="M51.0047 28.6782L50.4346 26.0417H42.739V57.2162H51.646V36.0888C53.748 33.3455 57.3108 33.8442 58.4153 34.2362V26.0417C57.2752 25.6142 53.1067 24.8304 51.0047 28.6782Z" fill="#868686"/>
<path fill-rule="evenodd" clip-rule="evenodd" d="M33.1909 18.3104L24.4977 20.163L24.4621 48.7011C24.4621 53.974 28.4168 57.8575 33.6897 57.8575C36.6112 57.8575 38.7489 57.3231 39.9246 56.6818V49.4493C38.7845 49.9124 33.1553 51.5513 33.1553 46.2784V33.6304H39.9246V26.0417H33.1553L33.1909 18.3104Z" fill="#868686"/>
<path fill-rule="evenodd" clip-rule="evenodd" d="M9.10676 35.0913C9.10676 33.7018 10.2469 33.1674 12.1351 33.1674C14.8429 33.1674 18.2632 33.9868 20.9709 35.4476V27.075C18.0138 25.8993 15.0923 25.4361 12.1351 25.4361C4.90265 25.4361 0.092865 29.2127 0.092865 35.5188C0.092865 45.3522 13.6315 43.7845 13.6315 48.0243C13.6315 49.6632 12.2064 50.1976 10.2112 50.1976C7.2541 50.1976 3.47753 48.9862 0.484773 47.3474V55.8268C3.79818 57.2519 7.14721 57.8576 10.2112 57.8576C17.6219 57.8576 22.7167 54.1879 22.7167 47.8105C22.681 37.1934 9.10676 39.0816 9.10676 35.0913Z" fill="#868686"/>
</g>
<defs>
<clipPath id="clip0_3_889">
<rect width="129.384" height="77.6303" fill="white" transform="translate(0.0928955)"/>
</clipPath>
</defs>
</svg>
