<svg width="117" height="78" viewBox="0 0 117 78" fill="none" xmlns="http://www.w3.org/2000/svg">
<g clip-path="url(#clip0_3_707)">
<path d="M6.71545 47.0313C7.20763 48.3375 7.88905 49.4543 8.75983 50.3818C9.63061 51.3093 10.6622 52.0192 11.8547 52.5113C13.0473 53.0035 14.3439 53.2496 15.7447 53.2496C17.1076 53.2496 18.3853 52.994 19.5779 52.4828C20.7704 51.9717 21.8115 51.2524 22.7011 50.325C23.5907 49.3974 24.2817 48.2901 24.7739 47.0029C25.2661 45.7157 25.5121 44.2773 25.5121 42.6871V18.155H31.4747V57.906H25.5689V54.2148C24.2439 55.6155 22.6821 56.6945 20.8839 57.4518C19.0855 58.2089 17.1455 58.5875 15.0632 58.5875C12.9431 58.5875 10.9651 58.2183 9.12887 57.4801C7.29282 56.7419 5.70268 55.6914 4.35881 54.3284C3.01495 52.9655 1.95481 51.3283 1.17877 49.4164C0.402606 47.5046 0.0145874 45.3751 0.0145874 43.0278V18.155H5.97723V42.6871C5.97723 44.2773 6.22326 45.7252 6.71545 47.0313Z" fill="#868686"/>
<path d="M41.7527 18.155V32.6357C43.0777 31.3107 44.6111 30.2602 46.3525 29.4841C48.094 28.7079 49.9869 28.3199 52.0312 28.3199C54.1513 28.3199 56.1387 28.7173 57.9938 29.5123C59.8489 30.3073 61.4577 31.3863 62.8207 32.7493C64.1837 34.1123 65.2626 35.7211 66.0577 37.5762C66.8527 39.4313 67.2501 41.3999 67.2501 43.4821C67.2501 45.5642 66.8527 47.5234 66.0577 49.3595C65.2626 51.1956 64.1837 52.7952 62.8207 54.1579C61.4577 55.5209 59.8489 56.5999 57.9938 57.3949C56.1387 58.1899 54.1512 58.5873 52.0312 58.5873C49.9868 58.5873 48.0845 58.1993 46.3241 57.4231C44.5637 56.6471 43.0209 55.5965 41.6959 54.2715V57.9059H36.0173V18.155H41.7527ZM42.4057 47.4004C42.9168 48.6119 43.6267 49.672 44.5353 50.5806C45.4439 51.4892 46.5039 52.2085 47.7154 52.7385C48.9269 53.2685 50.233 53.5335 51.6337 53.5335C52.9967 53.5335 54.2838 53.2685 55.4952 52.7385C56.7066 52.2085 57.7571 51.4893 58.647 50.5806C59.5366 49.6721 60.2464 48.6119 60.7764 47.4004C61.3064 46.189 61.5714 44.8829 61.5714 43.4821C61.5714 42.0813 61.3064 40.7657 60.7764 39.5353C60.2464 38.3049 59.5366 37.2355 58.647 36.3269C57.7572 35.4184 56.7068 34.7085 55.4952 34.1975C54.2837 33.6864 52.9966 33.4307 51.6337 33.4307C50.2709 33.4307 48.9837 33.6863 47.7723 34.1975C46.5609 34.7086 45.5008 35.4184 44.5921 36.3269C43.6836 37.2355 42.9643 38.3049 42.4343 39.5353C41.9043 40.7657 41.6393 42.0813 41.6393 43.4821C41.6391 44.8829 41.8947 46.189 42.4057 47.4004Z" fill="#868686"/>
<path d="M70.4863 37.633C71.2433 35.8158 72.2846 34.2163 73.6095 32.8345C74.9344 31.4527 76.5057 30.3643 78.3229 29.5693C80.1401 28.7743 82.1087 28.3768 84.2288 28.3768C86.311 28.3768 88.2417 28.7554 90.0211 29.5125C91.8004 30.2697 93.3336 31.3203 94.6208 32.6643C95.908 34.0081 96.9113 35.5983 97.6305 37.4343C98.3498 39.2705 98.7094 41.2675 98.7094 43.4255V45.2995H75.1429C75.3322 46.4731 75.7108 47.5615 76.2786 48.5646C76.8466 49.5678 77.5563 50.4386 78.4081 51.1768C79.2599 51.9151 80.2253 52.4925 81.3043 52.9088C82.3833 53.3252 83.5284 53.5336 84.7399 53.5336C88.1851 53.5336 90.9677 52.1138 93.0877 49.2744L97.2331 52.3409C95.7945 54.2717 94.0153 55.786 91.8953 56.8839C89.7751 57.9817 87.3901 58.5307 84.74 58.5307C82.5821 58.5307 80.5662 58.152 78.6922 57.3949C76.8182 56.6378 75.1904 55.5777 73.8085 54.2147C72.4267 52.8518 71.3383 51.2523 70.5433 49.4163C69.7483 47.5802 69.3507 45.5831 69.3507 43.4252C69.3505 41.381 69.7292 39.4502 70.4863 37.633ZM78.4649 35.3898C76.8559 36.7338 75.7865 38.5226 75.2564 40.7562H92.9173C92.4251 38.5226 91.3745 36.7338 89.7655 35.3898C88.1566 34.0459 86.2731 33.374 84.1153 33.374C81.9573 33.374 80.0739 34.0459 78.4649 35.3898Z" fill="#868686"/>
<path d="M109.442 36.0429C108.231 37.368 107.625 39.1662 107.625 41.4377V57.9062H101.889V28.9446H107.568V32.5222C108.287 31.3486 109.224 30.4211 110.379 29.7396C111.534 29.0581 112.906 28.7173 114.496 28.7173H116.484V34.0553H114.099C112.206 34.0555 110.654 34.7179 109.442 36.0429Z" fill="#868686"/>
</g>
<defs>
<clipPath id="clip0_3_707">
<rect width="116.445" height="77.6303" fill="white" transform="translate(0.0146484 0.364746)"/>
</clipPath>
</defs>
</svg>
