<svg width="188" height="78" viewBox="0 0 188 78" fill="none" xmlns="http://www.w3.org/2000/svg">
<g clip-path="url(#clip0_3_687)">
<path d="M60.6159 34.9873C60.6159 31.6531 57.2816 28.0966 51.7246 28.0966C45.5006 28.0966 38.3876 32.7645 37.2762 42.1004C36.1648 51.4363 41.9441 55.6596 47.9457 55.6596C53.9474 55.6596 56.8371 53.4368 59.949 50.3248C57.2816 46.9906 53.7251 48.5466 53.0583 48.7689C52.3914 49.2134 51.28 49.658 49.5017 49.658C47.2789 49.658 44.8338 48.5466 44.8338 44.3232C59.5044 42.7672 60.6159 38.3216 60.6159 34.9873ZM53.5028 35.4319C53.5028 36.5433 53.0582 38.3216 45.7229 39.2107C47.2789 33.6536 50.1686 33.2091 51.5023 33.2091C52.836 33.4314 53.5028 34.3205 53.5028 35.4319ZM28.8294 36.321C28.8294 36.321 25.7175 46.1015 25.4952 46.9906C25.4952 46.1015 23.0501 28.5411 23.0501 28.5411C17.7153 28.5411 14.8256 32.3199 13.4919 36.321C13.4919 36.321 9.71312 46.1015 9.49083 46.9906C9.26855 46.3238 8.82399 36.5433 8.82399 36.5433C8.37942 31.6531 3.93377 28.5411 0.377243 28.5411L4.8229 55.2151C10.38 55.2151 13.4919 51.4363 15.0479 47.4352C15.0479 47.4352 18.3821 38.7661 18.6044 38.3216C18.6044 38.7661 21.0495 55.2151 21.0495 55.2151C26.6066 55.2151 29.7186 51.6585 31.2745 47.8797L39.0544 28.5411C33.2751 28.5411 30.3854 32.3199 28.8294 36.321ZM81.2882 27.8743C77.9539 27.8743 75.2865 29.6526 73.0637 32.5422L74.8419 16.5379C70.174 16.5379 66.6175 20.539 65.7284 26.3183L62.1718 54.9928C64.8392 54.9928 67.5066 54.3259 69.0626 52.3254C70.3963 54.1037 72.3968 55.4373 75.2865 55.4373C83.0664 55.4373 88.4012 46.546 88.4012 38.0993C88.6235 30.3194 84.8447 27.8743 81.2882 27.8743ZM80.399 41.6558C79.5099 46.3238 77.0648 49.4357 74.3974 49.4357C71.9523 49.4357 70.8409 48.3243 70.8409 48.3243C71.2854 44.3232 71.73 41.6558 72.6191 39.433C73.5083 37.2102 75.7311 33.8759 77.9539 33.8759C80.1767 34.0982 81.2882 36.9879 80.399 41.6558ZM107.962 28.5411H102.627V28.3189C103.072 24.7623 103.739 22.9841 106.628 22.7618C108.407 22.5395 109.296 21.6504 109.518 20.539C109.74 19.6498 110.185 16.7602 110.185 16.7602C99.2931 16.7602 95.9588 21.4281 95.0697 28.5411V28.7634H94.8474C93.0691 28.7634 91.0686 30.764 90.8463 33.2091L90.624 34.0982H94.1805L91.0686 58.9939L90.1795 63.4395C90.4017 63.4395 90.4017 63.4395 90.624 63.4395C95.7365 63.2172 98.8485 59.2162 99.7376 53.4368L102.183 33.8759H103.961C105.517 33.8759 107.518 32.3199 107.962 29.4303V28.5411ZM135.97 28.0966C129.746 28.0966 123.966 32.7645 122.188 39.8776C120.41 46.9906 123.077 55.6596 132.191 55.6596C141.304 55.6596 146.639 46.7683 146.639 39.433C146.417 32.0977 141.527 28.0966 135.97 28.0966ZM138.415 41.4335C138.193 44.7678 136.637 49.658 132.635 49.658C128.634 49.658 129.301 43.8786 129.523 41.2113C129.968 38.3216 131.524 34.0982 135.081 34.0982C138.415 34.0982 138.859 37.877 138.415 41.4335ZM177.314 36.321C177.314 36.321 174.202 46.1015 173.98 46.9906C173.98 46.1015 171.535 28.5411 171.535 28.5411C166.2 28.5411 163.31 32.3199 161.977 36.321C161.977 36.321 158.198 46.1015 157.976 46.9906C157.976 46.3238 157.309 36.5433 157.309 36.5433C157.087 31.6531 152.419 28.7634 148.862 28.7634L153.308 55.4373C158.865 55.4373 161.977 51.6585 163.533 47.6575C163.533 47.6575 166.867 38.9884 167.089 38.5439C167.089 38.9884 169.534 55.4373 169.534 55.4373C175.091 55.4373 178.203 51.8808 179.759 48.102L187.095 28.5411C181.538 28.5411 178.648 32.3199 177.314 36.321ZM113.075 16.7602L108.629 53.2145L107.74 57.6602C107.962 57.6602 107.962 57.6602 108.184 57.6602C113.075 57.6602 116.631 53.2145 117.076 47.8797L119.743 26.9852C120.41 20.7612 116.409 16.7602 113.075 16.7602Z" fill="#868686"/>
</g>
<defs>
<clipPath id="clip0_3_687">
<rect width="187.607" height="77.6303" fill="white" transform="translate(0.377319 0.364746)"/>
</clipPath>
</defs>
</svg>
