<svg width="160" height="78" viewBox="0 0 160 78" fill="none" xmlns="http://www.w3.org/2000/svg">
<g clip-path="url(#clip0_3_575)">
<path fill-rule="evenodd" clip-rule="evenodd" d="M129.483 33.4942C130.088 34.5384 130.286 35.7264 130.351 37.062L130.437 38.8421V51.2901L130.525 53.0721C130.701 55.9823 132.847 58.1342 135.78 58.3173L137.552 58.4051V38.8421L137.64 37.062C137.713 35.7413 137.909 34.5309 138.524 33.4792C139.15 32.4006 140.049 31.5056 141.13 30.8843C142.212 30.2629 143.438 29.937 144.685 29.9393C145.932 29.9415 147.157 30.2719 148.236 30.8972C149.315 31.5225 150.211 32.4207 150.833 33.5017C151.439 34.5458 151.627 35.7563 151.7 37.062L151.788 38.8365V51.2901L151.876 53.0721C152.059 55.9973 154.188 58.1492 157.13 58.3173L158.903 58.4051V37.062C158.903 33.2879 157.404 29.6684 154.736 26.9992C152.068 24.33 148.449 22.8297 144.675 22.8282C142.655 22.8261 140.658 23.2551 138.817 24.0865C136.976 24.9179 135.334 26.1326 134 27.6494C132.665 26.1332 131.023 24.9188 129.182 24.0871C127.341 23.2555 125.344 22.8257 123.324 22.8264C120.369 22.8264 117.627 23.723 115.356 25.2715C113.97 23.7248 110.869 22.8264 109.089 22.8264V58.4051L110.869 58.3173C113.846 58.1211 115.998 56.0272 116.114 53.0721L116.209 51.2901V38.8421L116.297 37.062C116.372 35.7189 116.559 34.5384 117.166 33.4867C117.792 32.4087 118.691 31.514 119.772 30.8919C120.852 30.2697 122.077 29.942 123.324 29.9414C124.572 29.9416 125.798 30.27 126.879 30.8936C127.96 31.5172 128.858 32.414 129.483 33.4942ZM7.68747 58.3191L9.46762 58.4051H36.1512L36.0634 56.6305C35.8224 53.7053 33.7509 51.5684 30.8163 51.3779L29.0362 51.2901H13.0279L34.371 29.9395L34.2832 28.1668C34.145 25.2117 31.9857 23.0767 29.0362 22.9142L27.256 22.8338L0.572479 22.8264L0.660273 24.6065C0.893765 27.5037 2.9952 29.6855 5.90545 29.8536L7.68747 29.9414H23.6957L2.35263 51.2919L2.44042 53.0721C2.61601 56.0048 4.73239 58.1286 7.68747 58.3173V58.3191ZM102.104 28.0342C103.757 29.686 105.067 31.6472 105.961 33.8056C106.856 35.9641 107.316 38.2775 107.316 40.6138C107.316 42.9502 106.856 45.2636 105.961 47.4221C105.067 49.5805 103.757 51.5416 102.104 53.1935C98.7664 56.5288 94.2408 58.4023 89.522 58.4023C84.8033 58.4023 80.2776 56.5288 76.9395 53.1935C69.9927 46.2466 69.9927 34.9811 76.9395 28.0342C78.5902 26.3829 80.55 25.0729 82.707 24.179C84.864 23.2851 87.1759 22.8249 89.5108 22.8245C91.8495 22.8229 94.1655 23.2823 96.3264 24.1766C98.4874 25.0708 100.451 26.3823 102.104 28.0361V28.0342ZM97.0704 33.072C99.0713 35.0745 100.195 37.7895 100.195 40.6204C100.195 43.4512 99.0713 46.1663 97.0704 48.1687C95.0679 50.1697 92.3529 51.2937 89.522 51.2937C86.6911 51.2937 83.9761 50.1697 81.9736 48.1687C79.9727 46.1663 78.8487 43.4512 78.8487 40.6204C78.8487 37.7895 79.9727 35.0745 81.9736 33.072C83.9761 31.0711 86.6911 29.9471 89.522 29.9471C92.3529 29.9471 95.0679 31.0711 97.0704 33.072ZM52.1744 22.8245C54.5094 22.8251 56.8214 23.2857 58.9784 24.1799C61.1354 25.0741 63.0951 26.3844 64.7456 28.0361C71.6944 34.9811 71.6944 46.2485 64.7456 53.1935C61.4076 56.5288 56.8819 58.4023 52.1632 58.4023C47.4444 58.4023 42.9187 56.5288 39.5807 53.1935C32.6338 46.2466 32.6338 34.9811 39.5807 28.0342C41.2314 26.3829 43.1912 25.0729 45.3482 24.179C47.5052 23.2851 49.8171 22.8249 52.152 22.8245H52.1744ZM59.7115 33.0683C61.713 35.0708 62.8374 37.7863 62.8374 40.6176C62.8374 43.4489 61.713 46.1643 59.7115 48.1669C57.709 50.1678 54.994 51.2918 52.1632 51.2918C49.3323 51.2918 46.6173 50.1678 44.6148 48.1669C42.6139 46.1644 41.4899 43.4494 41.4899 40.6185C41.4899 37.7877 42.6139 35.0726 44.6148 33.0702C46.6173 31.0692 49.3323 29.9452 52.1632 29.9452C54.994 29.9452 57.709 31.0692 59.7115 33.0702V33.0683Z" fill="#868686"/>
</g>
<defs>
<clipPath id="clip0_3_575">
<rect width="158.495" height="77.6303" fill="white" transform="translate(0.57251 0.182617)"/>
</clipPath>
</defs>
</svg>
